ffmpeg version N-112380-gc7fb4d0eb6-20231008 Copyright (c) 2000-2023 the FFmpeg developers
  built with gcc 13.2.0 (crosstool-NG 1.25.0.232_c175b21)
  configuration: --prefix=/ffbuild/prefix --pkg-config-flags=--static --pkg-config=pkg-config --cross-prefix=x86_64-w64-mingw32- --arch=x86_64 --target-os=mingw32 --enable-gpl --enable-version3 --disable-debug --enable-shared --disable-static --disable-w32threads --enable-pthreads --enable-iconv --enable-libxml2 --enable-zlib --enable-libfreetype --enable-libfribidi --enable-gmp --enable-lzma --enable-fontconfig --enable-libharfbuzz --enable-libvorbis --enable-opencl --disable-libpulse --enable-libvmaf --disable-libxcb --disable-xlib --enable-amf --enable-libaom --enable-libaribb24 --enable-avisynth --enable-chromaprint --enable-libdav1d --enable-libdavs2 --disable-libfdk-aac --enable-ffnvcodec --enable-cuda-llvm --enable-frei0r --enable-libgme --enable-libkvazaar --enable-libass --enable-libbluray --enable-libjxl --enable-libmp3lame --enable-libopus --enable-librist --enable-libssh --enable-libtheora --enable-libvpx --enable-libwebp --enable-lv2 --enable-libvpl --enable-openal --enable-libopencore-amrnb --enable-libopencore-amrwb --enable-libopenh264 --enable-libopenjpeg --enable-libopenmpt --enable-librav1e --enable-librubberband --enable-schannel --enable-sdl2 --enable-libsoxr --enable-libsrt --enable-libsvtav1 --enable-libtwolame --enable-libuavs3d --disable-libdrm --enable-vaapi --enable-libvidstab --enable-vulkan --enable-libshaderc --enable-libplacebo --enable-libx264 --enable-libx265 --enable-libxavs2 --enable-libxvid --enable-libzimg --enable-libzvbi --extra-cflags=-DLIBTWOLAME_STATIC --extra-cxxflags= --extra-ldflags=-pthread --extra-ldexeflags= --extra-libs=-lgomp --extra-version=20231008
  libavutil      58. 27.100 / 58. 27.100
  libavcodec     60. 30.101 / 60. 30.101
  libavformat    60. 15.100 / 60. 15.100
  libavdevice    60.  2.101 / 60.  2.101
  libavfilter     9. 11.100 /  9. 11.100
  libswscale      7.  4.100 /  7.  4.100
  libswresample   4. 11.100 /  4. 11.100
  libpostproc    57.  2.100 / 57.  2.100
Splitting the commandline.
Reading option '-v' ... matched as option 'v' (set logging level) with argument 'debug'.
Reading option '-nostdin' ... matched as option 'stdin' (enable or disable interaction on standard input) with argument 0.
Reading option '-progress' ... matched as option 'progress' (write program-readable progress information) with argument 'C:/Users/defga/AppData/Local/Temp/KritaFFmpegProgress.RoAxNE'.
Reading option '-r' ... matched as option 'r' (set frame rate (Hz value, fraction or abbreviation)) with argument '8'.
Reading option '-start_number' ... matched as AVOption 'start_number' with argument '0'.
Reading option '-i' ... matched as output url with argument 'C:/Users/defga/OneDrive/Documents/GitHub/AIs-with-Grenade-Launchers-Fight/assets/AI/Move/frame%04d.png'.
Reading option '-i' ... matched as output url with argument 'C:/Users/defga/OneDrive/Documents/GitHub/AIs-with-Grenade-Launchers-Fight/assets/AI/Move/palette.png'.
Reading option '-lavfi' ... matched as option 'lavfi' (create a complex filtergraph) with argument '[0:v][1:v] paletteuse'.
Reading option '-y' ... matched as option 'y' (overwrite output files) with argument '1'.
Reading option 'C:/Users/defga/OneDrive/Documents/GitHub/AIs-with-Grenade-Launchers-Fight/assets/AI/Move/Right.gif' ... matched as output url.
Finished splitting the commandline.
Parsing a group of options: global .
Applying option v (set logging level) with argument debug.
Applying option nostdin (enable or disable interaction on standard input) with argument 0.
Applying option progress (write program-readable progress information) with argument C:/Users/defga/AppData/Local/Temp/KritaFFmpegProgress.RoAxNE.
[file @ 00000165af7b9d40] Setting default whitelist 'file,crypto,data'
Applying option lavfi (create a complex filtergraph) with argument [0:v][1:v] paletteuse.
Applying option y (overwrite output files) with argument 1.
Successfully parsed a group of options.
Parsing a group of options: input url C:/Users/defga/OneDrive/Documents/GitHub/AIs-with-Grenade-Launchers-Fight/assets/AI/Move/frame%04d.png.
Applying option r (set frame rate (Hz value, fraction or abbreviation)) with argument 8.
Successfully parsed a group of options.
Opening an input file: C:/Users/defga/OneDrive/Documents/GitHub/AIs-with-Grenade-Launchers-Fight/assets/AI/Move/frame%04d.png.
[image2 @ 00000165af888d00] Opening 'C:/Users/defga/OneDrive/Documents/GitHub/AIs-with-Grenade-Launchers-Fight/assets/AI/Move/frame0000.png' for reading
[file @ 00000165af88c100] Setting default whitelist 'file,crypto,data'
[AVIOContext @ 00000165af894280] Statistics: 1240 bytes read, 0 seeks
[image2 @ 00000165af888d00] Opening 'C:/Users/defga/OneDrive/Documents/GitHub/AIs-with-Grenade-Launchers-Fight/assets/AI/Move/frame0001.png' for reading
[file @ 00000165af894a00] Setting default whitelist 'file,crypto,data'
[AVIOContext @ 00000165af88d580] Statistics: 1270 bytes read, 0 seeks
[image2 @ 00000165af888d00] Opening 'C:/Users/defga/OneDrive/Documents/GitHub/AIs-with-Grenade-Launchers-Fight/assets/AI/Move/frame0002.png' for reading
[file @ 00000165af88d580] Setting default whitelist 'file,crypto,data'
[AVIOContext @ 00000165af894a00] Statistics: 1255 bytes read, 0 seeks
[image2 @ 00000165af888d00] Opening 'C:/Users/defga/OneDrive/Documents/GitHub/AIs-with-Grenade-Launchers-Fight/assets/AI/Move/frame0003.png' for reading
[file @ 00000165af894a00] Setting default whitelist 'file,crypto,data'
[AVIOContext @ 00000165af891440] Statistics: 1270 bytes read, 0 seeks
Input #0, image2, from 'C:/Users/defga/OneDrive/Documents/GitHub/AIs-with-Grenade-Launchers-Fight/assets/AI/Move/frame%04d.png':
  Duration: 00:00:00.16, start: 0.000000, bitrate: N/A
  Stream #0:0, 4, 1/25: Video: png, 1 reference frame, rgba(pc, gbr/unknown/unknown), 20x40 [SAR 11811:11811 DAR 1:2], 0/1, 25 fps, 25 tbr, 25 tbn
Successfully opened the file.
Parsing a group of options: input url C:/Users/defga/OneDrive/Documents/GitHub/AIs-with-Grenade-Launchers-Fight/assets/AI/Move/palette.png.
Successfully parsed a group of options.
Opening an input file: C:/Users/defga/OneDrive/Documents/GitHub/AIs-with-Grenade-Launchers-Fight/assets/AI/Move/palette.png.
[AVFormatContext @ 00000165af892580] Opening 'C:/Users/defga/OneDrive/Documents/GitHub/AIs-with-Grenade-Launchers-Fight/assets/AI/Move/palette.png' for reading
[file @ 00000165af7ab5c0] Setting default whitelist 'file,crypto,data'
[png_pipe @ 00000165af892580] Format png_pipe probed with size=2048 and score=99
[png_pipe @ 00000165af892580] Before avformat_find_stream_info() pos: 0 bytes read:220 seeks:0 nb_streams:1
[png_pipe @ 00000165af892580] After avformat_find_stream_info() pos: 220 bytes read:220 seeks:0 frames:1
Input #1, png_pipe, from 'C:/Users/defga/OneDrive/Documents/GitHub/AIs-with-Grenade-Launchers-Fight/assets/AI/Move/palette.png':
  Duration: N/A, bitrate: N/A
  Stream #1:0, 1, 1/25: Video: png, 1 reference frame, rgba(pc, gbr/unknown/unknown), 16x16 [SAR 1:1 DAR 1:1], 0/1, 25 fps, 25 tbr, 25 tbn
Successfully opened the file.
detected 12 logical cores
Parsing a group of options: output url C:/Users/defga/OneDrive/Documents/GitHub/AIs-with-Grenade-Launchers-Fight/assets/AI/Move/Right.gif.
Successfully parsed a group of options.
Opening an output file: C:/Users/defga/OneDrive/Documents/GitHub/AIs-with-Grenade-Launchers-Fight/assets/AI/Move/Right.gif.
[out#0/gif @ 00000165b17273c0] Creating output stream from unlabeled output of complex filtergraph 0. This overrides automatic video mapping.
[vost#0:0/gif @ 00000165b1760f80] Created video stream from complex filtergraph 0:[paletteuse:default]
[vost#0:0/gif @ 00000165b1760f80] 
[out#0/gif @ 00000165b17273c0] No explicit maps, mapping streams automatically...
[file @ 00000165af7ae480] Setting default whitelist 'file,crypto,data'
Successfully opened the file.
Stream mapping:
  Stream #0:0 (png) -> paletteuse
  Stream #1:0 (png) -> paletteuse
  paletteuse:default -> Stream #0:0 (gif)
[in#0/image2 @ 00000165af7ad800] EOF while reading input
[in#0/image2 @ 00000165af7ad800] Terminating demuxer thread
[vist#0:0/png @ 00000165af7aa440] Decoder thread received EOF packet
[vist#0:0/png @ 00000165af7aa440] Decoder returned EOF, finishing
[vist#0:0/png @ 00000165af7aa440] Terminating decoder thread
[in#1/png_pipe @ 00000165af894a00] EOF while reading input
[in#1/png_pipe @ 00000165af894a00] Terminating demuxer thread
[vist#1:0/png @ 00000165b1773d40] Decoder thread received EOF packet
[vist#1:0/png @ 00000165b1773d40] Decoder returned EOF, finishing
[vist#1:0/png @ 00000165b1773d40] Terminating decoder thread
[graph 0 input from stream 0:0 @ 00000165af7bb4c0] Setting 'video_size' to value '20x40'
[graph 0 input from stream 0:0 @ 00000165af7bb4c0] Setting 'pix_fmt' to value '26'
[graph 0 input from stream 0:0 @ 00000165af7bb4c0] Setting 'time_base' to value '1/8'
[graph 0 input from stream 0:0 @ 00000165af7bb4c0] Setting 'pixel_aspect' to value '11811/11811'
[graph 0 input from stream 0:0 @ 00000165af7bb4c0] Setting 'frame_rate' to value '8/1'
[graph 0 input from stream 0:0 @ 00000165af7bb4c0] w:20 h:40 pixfmt:rgba tb:1/8 fr:8/1 sar:11811/11811
[graph 0 input from stream 1:0 @ 00000165af7bc2c0] Setting 'video_size' to value '16x16'
[graph 0 input from stream 1:0 @ 00000165af7bc2c0] Setting 'pix_fmt' to value '26'
[graph 0 input from stream 1:0 @ 00000165af7bc2c0] Setting 'time_base' to value '1/25'
[graph 0 input from stream 1:0 @ 00000165af7bc2c0] Setting 'pixel_aspect' to value '1/1'
[graph 0 input from stream 1:0 @ 00000165af7bc2c0] Setting 'frame_rate' to value '25/1'
[graph 0 input from stream 1:0 @ 00000165af7bc2c0] w:16 h:16 pixfmt:rgba tb:1/25 fr:25/1 sar:1/1
[format @ 00000165af7bbdc0] Setting 'pix_fmts' to value 'rgb8|bgr8|rgb4_byte|bgr4_byte|gray|pal8'
[auto_scale_0 @ 00000165af7bb8c0] w:iw h:ih flags:'' interl:0
[Parsed_paletteuse_0 @ 00000165af7bbac0] auto-inserting filter 'auto_scale_0' between the filter 'graph 0 input from stream 0:0' and the filter 'Parsed_paletteuse_0'
[auto_scale_1 @ 00000165af7bbbc0] w:iw h:ih flags:'' interl:0
[Parsed_paletteuse_0 @ 00000165af7bbac0] auto-inserting filter 'auto_scale_1' between the filter 'graph 0 input from stream 1:0' and the filter 'Parsed_paletteuse_0'
[AVFilterGraph @ 00000165b1723dc0] query_formats: 5 queried, 2 merged, 2 already done, 0 delayed
[swscaler @ 00000165b18ad9c0] [swscaler @ 00000165b18c41c0] Forcing full internal H chroma due to input having non subsampled chroma
[swscaler @ 00000165b18ad9c0] [swscaler @ 00000165b18d8200] Forcing full internal H chroma due to input having non subsampled chroma
[swscaler @ 00000165b18ad9c0] [swscaler @ 00000165b18eb240] Forcing full internal H chroma due to input having non subsampled chroma
[swscaler @ 00000165b18ad9c0] [swscaler @ 00000165b18fe280] Forcing full internal H chroma due to input having non subsampled chroma
[swscaler @ 00000165b18ad9c0] [swscaler @ 00000165b19112c0] Forcing full internal H chroma due to input having non subsampled chroma
[swscaler @ 00000165b18ad9c0] [swscaler @ 00000165b19242c0] Forcing full internal H chroma due to input having non subsampled chroma
[swscaler @ 00000165b18ad9c0] [swscaler @ 00000165b1937300] Forcing full internal H chroma due to input having non subsampled chroma
[swscaler @ 00000165b18ad9c0] [swscaler @ 00000165b194a340] Forcing full internal H chroma due to input having non subsampled chroma
[swscaler @ 00000165b18ad9c0] [swscaler @ 00000165b195d380] Forcing full internal H chroma due to input having non subsampled chroma
[swscaler @ 00000165b18ad9c0] [swscaler @ 00000165b1970380] Forcing full internal H chroma due to input having non subsampled chroma
[swscaler @ 00000165b18ad9c0] [swscaler @ 00000165b19833c0] Forcing full internal H chroma due to input having non subsampled chroma
[swscaler @ 00000165b18ad9c0] [swscaler @ 00000165b1996400] Forcing full internal H chroma due to input having non subsampled chroma
[swscaler @ 00000165b18ad9c0] [swscaler @ 00000165b19ab440] Forcing full internal H chroma due to input having non subsampled chroma
[auto_scale_0 @ 00000165af7bb8c0] w:20 h:40 fmt:rgba sar:11811/11811 -> w:20 h:40 fmt:bgra sar:1/1 flags:0x00000004
[swscaler @ 00000165b19be480] [swscaler @ 00000165b19dc4c0] Forcing full internal H chroma due to input having non subsampled chroma
[swscaler @ 00000165b19be480] [swscaler @ 00000165b1af6100] Forcing full internal H chroma due to input having non subsampled chroma
[swscaler @ 00000165b19be480] [swscaler @ 00000165b1b09140] Forcing full internal H chroma due to input having non subsampled chroma
[swscaler @ 00000165b19be480] [swscaler @ 00000165b1b1c140] Forcing full internal H chroma due to input having non subsampled chroma
[swscaler @ 00000165b19be480] [swscaler @ 00000165b1b2f180] Forcing full internal H chroma due to input having non subsampled chroma
[swscaler @ 00000165b19be480] [swscaler @ 00000165b1b421c0] Forcing full internal H chroma due to input having non subsampled chroma
[swscaler @ 00000165b19be480] [swscaler @ 00000165b1b55200] Forcing full internal H chroma due to input having non subsampled chroma
[swscaler @ 00000165b19be480] [swscaler @ 00000165b1b68200] Forcing full internal H chroma due to input having non subsampled chroma
[swscaler @ 00000165b19be480] [swscaler @ 00000165b1b7b240] Forcing full internal H chroma due to input having non subsampled chroma
[swscaler @ 00000165b19be480] [swscaler @ 00000165b1b8e280] Forcing full internal H chroma due to input having non subsampled chroma
[swscaler @ 00000165b19be480] [swscaler @ 00000165b1ba12c0] Forcing full internal H chroma due to input having non subsampled chroma
[swscaler @ 00000165b19be480] [swscaler @ 00000165b1bb42c0] Forcing full internal H chroma due to input having non subsampled chroma
[swscaler @ 00000165b19be480] [swscaler @ 00000165b1bc7300] Forcing full internal H chroma due to input having non subsampled chroma
[auto_scale_1 @ 00000165af7bbbc0] w:16 h:16 fmt:rgba sar:1/1 -> w:16 h:16 fmt:bgra sar:1/1 flags:0x00000004
[Parsed_paletteuse_0 @ 00000165af7bbac0] [framesync @ 00000165b180bd08] Selected 1/200 time base
[Parsed_paletteuse_0 @ 00000165af7bbac0] [framesync @ 00000165b180bd08] Sync level 2
[swscaler @ 00000165b18ad9c0] [swscaler @ 00000165b19ab440] Forcing full internal H chroma due to input having non subsampled chroma
[swscaler @ 00000165b18ad9c0] [swscaler @ 00000165b18c41c0] Forcing full internal H chroma due to input having non subsampled chroma
[swscaler @ 00000165b18ad9c0] [swscaler @ 00000165b18d8200] Forcing full internal H chroma due to input having non subsampled chroma
[swscaler @ 00000165b18ad9c0] [swscaler @ 00000165b18e5200] Forcing full internal H chroma due to input having non subsampled chroma
[swscaler @ 00000165b18ad9c0] [swscaler @ 00000165b18f8240] Forcing full internal H chroma due to input having non subsampled chroma
[swscaler @ 00000165b18ad9c0] [swscaler @ 00000165b190b240] Forcing full internal H chroma due to input having non subsampled chroma
[swscaler @ 00000165b18ad9c0] [swscaler @ 00000165b191e280] Forcing full internal H chroma due to input having non subsampled chroma
[swscaler @ 00000165b18ad9c0] [swscaler @ 00000165b19312c0] Forcing full internal H chroma due to input having non subsampled chroma
[swscaler @ 00000165b18ad9c0] [swscaler @ 00000165b1944300] Forcing full internal H chroma due to input having non subsampled chroma
[swscaler @ 00000165b18ad9c0] [swscaler @ 00000165b1957300] Forcing full internal H chroma due to input having non subsampled chroma
[swscaler @ 00000165b18ad9c0] [swscaler @ 00000165b196a340] Forcing full internal H chroma due to input having non subsampled chroma
[swscaler @ 00000165b18ad9c0] [swscaler @ 00000165b197d380] Forcing full internal H chroma due to input having non subsampled chroma
[swscaler @ 00000165b18ad9c0] [swscaler @ 00000165b19903c0] Forcing full internal H chroma due to input having non subsampled chroma
[auto_scale_0 @ 00000165af7bb8c0] w:20 h:40 fmt:rgba sar:11811/11811 -> w:20 h:40 fmt:bgra sar:1/1 flags:0x00000004
[swscaler @ 00000165b18ad9c0] [swscaler @ 00000165b18c41c0] Forcing full internal H chroma due to input having non subsampled chroma
[swscaler @ 00000165b18ad9c0] [swscaler @ 00000165b19ab440] Forcing full internal H chroma due to input having non subsampled chroma
[swscaler @ 00000165b18ad9c0] [swscaler @ 00000165b18d8200] Forcing full internal H chroma due to input having non subsampled chroma
[swscaler @ 00000165b18ad9c0] [swscaler @ 00000165b18e5200] Forcing full internal H chroma due to input having non subsampled chroma
[swscaler @ 00000165b18ad9c0] [swscaler @ 00000165b18f8240] Forcing full internal H chroma due to input having non subsampled chroma
[swscaler @ 00000165b18ad9c0] [swscaler @ 00000165b190b240] Forcing full internal H chroma due to input having non subsampled chroma
[swscaler @ 00000165b18ad9c0] [swscaler @ 00000165b191e280] Forcing full internal H chroma due to input having non subsampled chroma
[swscaler @ 00000165b18ad9c0] [swscaler @ 00000165b19312c0] Forcing full internal H chroma due to input having non subsampled chroma
[swscaler @ 00000165b18ad9c0] [swscaler @ 00000165b1944300] Forcing full internal H chroma due to input having non subsampled chroma
[swscaler @ 00000165b18ad9c0] [swscaler @ 00000165b1957300] Forcing full internal H chroma due to input having non subsampled chroma
[swscaler @ 00000165b18ad9c0] [swscaler @ 00000165b196a340] Forcing full internal H chroma due to input having non subsampled chroma
[swscaler @ 00000165b18ad9c0] [swscaler @ 00000165b197d380] Forcing full internal H chroma due to input having non subsampled chroma
[swscaler @ 00000165b18ad9c0] [swscaler @ 00000165b19903c0] Forcing full internal H chroma due to input having non subsampled chroma
[auto_scale_0 @ 00000165af7bb8c0] w:20 h:40 fmt:rgba sar:11811/11811 -> w:20 h:40 fmt:bgra sar:1/1 flags:0x00000004
[swscaler @ 00000165b18ad9c0] [swscaler @ 00000165b19ab440] Forcing full internal H chroma due to input having non subsampled chroma
[swscaler @ 00000165b18ad9c0] [swscaler @ 00000165b18c41c0] Forcing full internal H chroma due to input having non subsampled chroma
[swscaler @ 00000165b18ad9c0] [swscaler @ 00000165b18d8200] Forcing full internal H chroma due to input having non subsampled chroma
[swscaler @ 00000165b18ad9c0] [swscaler @ 00000165b18e5200] Forcing full internal H chroma due to input having non subsampled chroma
[swscaler @ 00000165b18ad9c0] [swscaler @ 00000165b18f8240] Forcing full internal H chroma due to input having non subsampled chroma
[swscaler @ 00000165b18ad9c0] [swscaler @ 00000165b190b240] Forcing full internal H chroma due to input having non subsampled chroma
[swscaler @ 00000165b18ad9c0] [swscaler @ 00000165b191e280] Forcing full internal H chroma due to input having non subsampled chroma
[swscaler @ 00000165b18ad9c0] [swscaler @ 00000165b19312c0] Forcing full internal H chroma due to input having non subsampled chroma
[swscaler @ 00000165b18ad9c0] [swscaler @ 00000165b1944300] Forcing full internal H chroma due to input having non subsampled chroma
[swscaler @ 00000165b18ad9c0] [swscaler @ 00000165b1957300] Forcing full internal H chroma due to input having non subsampled chroma
[swscaler @ 00000165b18ad9c0] [swscaler @ 00000165b196a340] Forcing full internal H chroma due to input having non subsampled chroma
[swscaler @ 00000165b18ad9c0] [swscaler @ 00000165b197d380] Forcing full internal H chroma due to input having non subsampled chroma
[swscaler @ 00000165b18ad9c0] [swscaler @ 00000165b19903c0] Forcing full internal H chroma due to input having non subsampled chroma
[auto_scale_0 @ 00000165af7bb8c0] w:20 h:40 fmt:rgba sar:11811/11811 -> w:20 h:40 fmt:bgra sar:1/1 flags:0x00000004
[swscaler @ 00000165b19be480] [swscaler @ 00000165b19dc4c0] Forcing full internal H chroma due to input having non subsampled chroma
[swscaler @ 00000165b19be480] [swscaler @ 00000165b1af6100] Forcing full internal H chroma due to input having non subsampled chroma
[swscaler @ 00000165b19be480] [swscaler @ 00000165b1b09140] Forcing full internal H chroma due to input having non subsampled chroma
[swscaler @ 00000165b19be480] [swscaler @ 00000165b1b1c140] Forcing full internal H chroma due to input having non subsampled chroma
[swscaler @ 00000165b19be480] [swscaler @ 00000165b1b2f180] Forcing full internal H chroma due to input having non subsampled chroma
[swscaler @ 00000165b19be480] [swscaler @ 00000165b1b421c0] Forcing full internal H chroma due to input having non subsampled chroma
[swscaler @ 00000165b19be480] [swscaler @ 00000165b1b55200] Forcing full internal H chroma due to input having non subsampled chroma
[swscaler @ 00000165b19be480] [swscaler @ 00000165b1b68200] Forcing full internal H chroma due to input having non subsampled chroma
[swscaler @ 00000165b19be480] [swscaler @ 00000165b1b7b240] Forcing full internal H chroma due to input having non subsampled chroma
[swscaler @ 00000165b19be480] [swscaler @ 00000165b1b8e280] Forcing full internal H chroma due to input having non subsampled chroma
[swscaler @ 00000165b19be480] [swscaler @ 00000165b1ba12c0] Forcing full internal H chroma due to input having non subsampled chroma
[swscaler @ 00000165b19be480] [swscaler @ 00000165b1bb42c0] Forcing full internal H chroma due to input having non subsampled chroma
[swscaler @ 00000165b19be480] [swscaler @ 00000165b1bc7300] Forcing full internal H chroma due to input having non subsampled chroma
[auto_scale_1 @ 00000165af7bbbc0] w:16 h:16 fmt:rgba sar:1/1 -> w:16 h:16 fmt:bgra sar:1/1 flags:0x00000004
[swscaler @ 00000165b19be480] [swscaler @ 00000165b19dc4c0] Forcing full internal H chroma due to input having non subsampled chroma
[swscaler @ 00000165b19be480] [swscaler @ 00000165b1af6100] Forcing full internal H chroma due to input having non subsampled chroma
[swscaler @ 00000165b19be480] [swscaler @ 00000165b1b09140] Forcing full internal H chroma due to input having non subsampled chroma
[swscaler @ 00000165b19be480] [swscaler @ 00000165b1b1c140] Forcing full internal H chroma due to input having non subsampled chroma
[swscaler @ 00000165b19be480] [swscaler @ 00000165b1b2f180] Forcing full internal H chroma due to input having non subsampled chroma
[swscaler @ 00000165b19be480] [swscaler @ 00000165b1b421c0] Forcing full internal H chroma due to input having non subsampled chroma
[swscaler @ 00000165b19be480] [swscaler @ 00000165b1b55200] Forcing full internal H chroma due to input having non subsampled chroma
[swscaler @ 00000165b19be480] [swscaler @ 00000165b1b68200] Forcing full internal H chroma due to input having non subsampled chroma
[swscaler @ 00000165b19be480] [swscaler @ 00000165b1b7b240] Forcing full internal H chroma due to input having non subsampled chroma
[swscaler @ 00000165b19be480] [swscaler @ 00000165b1b8e280] Forcing full internal H chroma due to input having non subsampled chroma
[swscaler @ 00000165b19be480] [swscaler @ 00000165b1ba12c0] Forcing full internal H chroma due to input having non subsampled chroma
[swscaler @ 00000165b19be480] [swscaler @ 00000165b1bb42c0] Forcing full internal H chroma due to input having non subsampled chroma
[swscaler @ 00000165b19be480] [swscaler @ 00000165b1bc7300] Forcing full internal H chroma due to input having non subsampled chroma
[auto_scale_1 @ 00000165af7bbbc0] w:16 h:16 fmt:rgba sar:1/1 -> w:16 h:16 fmt:bgra sar:1/1 flags:0x00000004
[swscaler @ 00000165b19be480] [swscaler @ 00000165b19dc4c0] Forcing full internal H chroma due to input having non subsampled chroma
[swscaler @ 00000165b19be480] [swscaler @ 00000165b1af6100] Forcing full internal H chroma due to input having non subsampled chroma
[swscaler @ 00000165b19be480] [swscaler @ 00000165b1b09140] Forcing full internal H chroma due to input having non subsampled chroma
[swscaler @ 00000165b19be480] [swscaler @ 00000165b1b1c140] Forcing full internal H chroma due to input having non subsampled chroma
[swscaler @ 00000165b19be480] [swscaler @ 00000165b1b2f180] Forcing full internal H chroma due to input having non subsampled chroma
[swscaler @ 00000165b19be480] [swscaler @ 00000165b1b421c0] Forcing full internal H chroma due to input having non subsampled chroma
[swscaler @ 00000165b19be480] [swscaler @ 00000165b1b55200] Forcing full internal H chroma due to input having non subsampled chroma
[swscaler @ 00000165b19be480] [swscaler @ 00000165b1b68200] Forcing full internal H chroma due to input having non subsampled chroma
[swscaler @ 00000165b19be480] [swscaler @ 00000165b1b7b240] Forcing full internal H chroma due to input having non subsampled chroma
[swscaler @ 00000165b19be480] [swscaler @ 00000165b1b8e280] Forcing full internal H chroma due to input having non subsampled chroma
[swscaler @ 00000165b19be480] [swscaler @ 00000165b1ba12c0] Forcing full internal H chroma due to input having non subsampled chroma
[swscaler @ 00000165b19be480] [swscaler @ 00000165b1bb42c0] Forcing full internal H chroma due to input having non subsampled chroma
[swscaler @ 00000165b19be480] [swscaler @ 00000165b1bc7300] Forcing full internal H chroma due to input having non subsampled chroma
[auto_scale_1 @ 00000165af7bbbc0] w:16 h:16 fmt:rgba sar:1/1 -> w:16 h:16 fmt:bgra sar:1/1 flags:0x00000004
[Parsed_paletteuse_0 @ 00000165af7bbac0] Copying data in avfilter.
    Last message repeated 2 times
Output #0, gif, to 'C:/Users/defga/OneDrive/Documents/GitHub/AIs-with-Grenade-Launchers-Fight/assets/AI/Move/Right.gif':
  Metadata:
    encoder         : Lavf60.15.100
  Stream #0:0, 0, 1/100: Video: gif, 1 reference frame, pal8(pc, gbr/unknown/unknown, progressive), 20x40 (0x0) [SAR 1:1 DAR 1:2], 0/1, q=2-31, 200 kb/s, 8 fps, 100 tbn
    Metadata:
      encoder         : Lavc60.30.101 gif
[gif @ 00000165b172cb80] 18x38 image at pos (1;2) [area:20x40]
[gif @ 00000165b172cb80] 18x39 image at pos (1;1) [area:20x40]
frame=    0 fps=0.0 q=-0.0 size=       0kB time=00:00:00.12 bitrate=   0.0kbits/s speed=3.15x    [Parsed_paletteuse_0 @ 00000165af7bbac0] Copying data in avfilter.
[gif @ 00000165b172cb80] 18x38 image at pos (1;2) [area:20x40]
[Parsed_paletteuse_0 @ 00000165af7bbac0] Copying data in avfilter.
[gif @ 00000165b172cb80] 18x39 image at pos (1;1) [area:20x40]
[Parsed_paletteuse_0 @ 00000165af7bbac0] [framesync @ 00000165b180bd08] Sync level 0
[out_0_0 @ 00000165af7bc9c0] EOF on sink link out_0_0:default.
No more output streams to write to, finishing.
[out#0/gif @ 00000165b17273c0] All streams finished
[out#0/gif @ 00000165b17273c0] Terminating muxer thread
[AVIOContext @ 00000165b17d4f00] Statistics: 2246 bytes written, 0 seeks, 1 writeouts
[out#0/gif @ 00000165b17273c0] Output file #0 (C:/Users/defga/OneDrive/Documents/GitHub/AIs-with-Grenade-Launchers-Fight/assets/AI/Move/Right.gif):
[out#0/gif @ 00000165b17273c0]   Output stream #0:0 (video): 4 frames encoded; 4 packets muxed (2226 bytes); 
[out#0/gif @ 00000165b17273c0]   Total: 4 packets (2226 bytes) muxed
[out#0/gif @ 00000165b17273c0] video:2kB audio:0kB subtitle:0kB other streams:0kB global headers:0kB muxing overhead: 0.898473%
frame=    4 fps=0.0 q=-0.0 Lsize=       2kB time=00:00:00.37 bitrate=  47.9kbits/s speed=9.09x    
[AVIOContext @ 00000165af7bfc00] Statistics: 378 bytes written, 0 seeks, 2 writeouts
[in#0/image2 @ 00000165af7ad800] Input file #0 (C:/Users/defga/OneDrive/Documents/GitHub/AIs-with-Grenade-Launchers-Fight/assets/AI/Move/frame%04d.png):
[in#0/image2 @ 00000165af7ad800]   Input stream #0:0 (video): 4 packets read (5035 bytes); 4 frames decoded; 0 decode errors; 
[in#0/image2 @ 00000165af7ad800]   Total: 4 packets (5035 bytes) demuxed
[in#1/png_pipe @ 00000165af894a00] Input file #1 (C:/Users/defga/OneDrive/Documents/GitHub/AIs-with-Grenade-Launchers-Fight/assets/AI/Move/palette.png):
[in#1/png_pipe @ 00000165af894a00]   Input stream #1:0 (video): 1 packets read (220 bytes); 1 frames decoded; 0 decode errors; 
[in#1/png_pipe @ 00000165af894a00]   Total: 1 packets (220 bytes) demuxed
[AVIOContext @ 00000165af7ae340] Statistics: 220 bytes read, 0 seeks
